<svg width="208" height="33" viewBox="0 0 208 33" fill="none" xmlns="http://www.w3.org/2000/svg">
<path d="M11.288 32.48C9.208 32.48 7.24 32.32 5.384 32C3.528 31.648 1.944 31.168 0.632 30.56V23.12C2.072 23.792 3.672 24.336 5.432 24.752C7.192 25.168 8.84 25.376 10.376 25.376C11.976 25.376 13.176 25.248 13.976 24.992C14.808 24.704 15.224 24.08 15.224 23.12C15.224 22.448 14.984 21.92 14.504 21.536C14.056 21.152 13.336 20.8 12.344 20.48C11.384 20.16 10.12 19.76 8.552 19.28C6.472 18.608 4.824 17.872 3.608 17.072C2.392 16.272 1.512 15.296 0.968 14.144C0.456 12.992 0.2 11.584 0.2 9.92C0.2 6.88 1.272 4.576 3.416 3.008C5.592 1.408 8.808 0.607998 13.064 0.607998C14.76 0.607998 16.504 0.751998 18.296 1.04C20.12 1.328 21.592 1.648 22.712 2V9.488C21.208 8.88 19.768 8.448 18.392 8.192C17.016 7.936 15.72 7.808 14.504 7.808C13.096 7.808 11.896 7.92 10.904 8.144C9.912 8.368 9.416 8.944 9.416 9.872C9.416 10.672 9.832 11.264 10.664 11.648C11.528 12 13.048 12.464 15.224 13.04C17.752 13.712 19.672 14.528 20.984 15.488C22.328 16.448 23.24 17.568 23.72 18.848C24.2 20.096 24.44 21.52 24.44 23.12C24.44 25.936 23.352 28.208 21.176 29.936C19 31.632 15.704 32.48 11.288 32.48ZM40.313 32.48C37.657 32.48 35.305 32.048 33.257 31.184C31.241 30.288 29.657 28.96 28.505 27.2C27.385 25.44 26.825 23.264 26.825 20.672C26.825 17.056 27.849 14.176 29.897 12.032C31.945 9.856 35.001 8.768 39.065 8.768C42.777 8.768 45.673 9.712 47.753 11.6C49.865 13.488 50.921 16.064 50.921 19.328V23.312H35.129C35.545 24.528 36.361 25.392 37.577 25.904C38.793 26.416 40.441 26.672 42.521 26.672C43.833 26.672 45.145 26.56 46.457 26.336C47.801 26.08 48.873 25.792 49.673 25.472V30.896C47.433 31.952 44.313 32.48 40.313 32.48ZM35.129 18.416H43.145V17.6C43.145 16.704 42.857 15.968 42.281 15.392C41.737 14.816 40.761 14.528 39.353 14.528C37.785 14.528 36.681 14.864 36.041 15.536C35.433 16.176 35.129 17.136 35.129 18.416ZM85.0741 32.48C80.5301 32.48 77.1701 31.472 74.9941 29.456C72.8501 27.44 71.7781 24.496 71.7781 20.624C71.7781 16.784 72.8661 13.856 75.0421 11.84C77.2181 9.792 80.5621 8.768 85.0741 8.768C89.6181 8.768 92.9781 9.792 95.1541 11.84C97.3621 13.856 98.4661 16.784 98.4661 20.624C98.4661 24.496 97.3781 27.44 95.2021 29.456C93.0261 31.472 89.6501 32.48 85.0741 32.48ZM85.0741 25.904C86.5461 25.904 87.6021 25.488 88.2421 24.656C88.9141 23.824 89.2501 22.48 89.2501 20.624C89.2501 18.8 88.9141 17.472 88.2421 16.64C87.6021 15.776 86.5461 15.344 85.0741 15.344C83.6341 15.344 82.5941 15.776 81.9541 16.64C81.3141 17.472 80.9941 18.8 80.9941 20.624C80.9941 22.48 81.3141 23.824 81.9541 24.656C82.5941 25.488 83.6341 25.904 85.0741 25.904ZM101.848 32V1.088H110.632L118.312 16.784L125.944 1.088H134.68V32H125.656V16.544L120.712 26.72H115.864L110.872 16.544V32H101.848ZM201.732 32.48C198.692 32.48 196.484 31.712 195.108 30.176C193.732 28.64 193.044 26.56 193.044 23.936V15.92H190.068V9.248H193.044V4.592L202.068 2.432V9.248H207.3L206.964 15.92H202.068V23.264C202.068 24.224 202.308 24.912 202.788 25.328C203.268 25.712 204.004 25.904 204.996 25.904C205.924 25.904 206.868 25.744 207.828 25.424V31.424C206.132 32.128 204.1 32.48 201.732 32.48Z" fill="#000746"/>
<path d="M54.2694 32V9.248H62.9574L63.1974 11.072C64.1254 10.528 65.3094 10.032 66.7494 9.584C68.1894 9.136 69.6454 8.864 71.1174 8.768V15.488C70.2854 15.552 69.3734 15.664 68.3814 15.824C67.4214 15.984 66.4774 16.192 65.5494 16.448C64.6534 16.672 63.9014 16.928 63.2934 17.216V32H54.2694Z" fill="#909DDC"/>
<path d="M151.547 32.48C148.891 32.48 146.539 32.048 144.491 31.184C142.475 30.288 140.891 28.96 139.739 27.2C138.619 25.44 138.059 23.264 138.059 20.672C138.059 17.056 139.083 14.176 141.131 12.032C143.179 9.856 146.235 8.768 150.299 8.768C154.011 8.768 156.907 9.712 158.987 11.6C161.099 13.488 162.155 16.064 162.155 19.328V23.312H146.363C146.779 24.528 147.595 25.392 148.811 25.904C150.027 26.416 151.675 26.672 153.755 26.672C155.067 26.672 156.379 26.56 157.691 26.336C159.035 26.08 160.107 25.792 160.907 25.472V30.896C158.667 31.952 155.547 32.48 151.547 32.48ZM146.363 18.416H154.379V17.6C154.379 16.704 154.091 15.968 153.515 15.392C152.971 14.816 151.995 14.528 150.587 14.528C149.019 14.528 147.915 14.864 147.275 15.536C146.667 16.176 146.363 17.136 146.363 18.416ZM178.032 32.48C175.376 32.48 173.024 32.048 170.976 31.184C168.96 30.288 167.376 28.96 166.224 27.2C165.104 25.44 164.544 23.264 164.544 20.672C164.544 17.056 165.568 14.176 167.616 12.032C169.664 9.856 172.72 8.768 176.784 8.768C180.496 8.768 183.392 9.712 185.472 11.6C187.584 13.488 188.64 16.064 188.64 19.328V23.312H172.848C173.264 24.528 174.08 25.392 175.296 25.904C176.512 26.416 178.16 26.672 180.24 26.672C181.552 26.672 182.864 26.56 184.176 26.336C185.52 26.08 186.592 25.792 187.392 25.472V30.896C185.152 31.952 182.032 32.48 178.032 32.48ZM172.848 18.416H180.864V17.6C180.864 16.704 180.576 15.968 180 15.392C179.456 14.816 178.48 14.528 177.072 14.528C175.504 14.528 174.4 14.864 173.76 15.536C173.152 16.176 172.848 17.136 172.848 18.416Z" fill="#646D99"/>
</svg>
