<svg xmlns="http://www.w3.org/2000/svg" width="209" height="33" fill="none" viewBox="0 0 209 33"><path fill="#000746" d="M11.6894 32.48C9.60937 32.48 7.64137 32.32 5.78537 32C3.92937 31.648 2.34537 31.168 1.03337 30.56V23.12C2.47337 23.792 4.07337 24.336 5.83337 24.752C7.59337 25.168 9.24137 25.376 10.7774 25.376C12.3774 25.376 13.5774 25.248 14.3774 24.992C15.2094 24.704 15.6254 24.08 15.6254 23.12C15.6254 22.448 15.3854 21.92 14.9054 21.536C14.4574 21.152 13.7374 20.8 12.7454 20.48C11.7854 20.16 10.5214 19.76 8.95337 19.28C6.87337 18.608 5.22537 17.872 4.00937 17.072C2.79337 16.272 1.91337 15.296 1.36937 14.144C0.857367 12.992 0.601367 11.584 0.601367 9.92C0.601367 6.88 1.67337 4.576 3.81737 3.008C5.99337 1.408 9.20937 0.607998 13.4654 0.607998C15.1614 0.607998 16.9054 0.751998 18.6974 1.04C20.5214 1.328 21.9934 1.648 23.1134 2V9.488C21.6094 8.88 20.1694 8.448 18.7934 8.192C17.4174 7.936 16.1214 7.808 14.9054 7.808C13.4974 7.808 12.2974 7.92 11.3054 8.144C10.3134 8.368 9.81737 8.944 9.81737 9.872C9.81737 10.672 10.2334 11.264 11.0654 11.648C11.9294 12 13.4494 12.464 15.6254 13.04C18.1534 13.712 20.0734 14.528 21.3854 15.488C22.7294 16.448 23.6414 17.568 24.1214 18.848C24.6014 20.096 24.8414 21.52 24.8414 23.12C24.8414 25.936 23.7534 28.208 21.5774 29.936C19.4014 31.632 16.1054 32.48 11.6894 32.48ZM40.7144 32.48C38.0584 32.48 35.7064 32.048 33.6584 31.184C31.6424 30.288 30.0584 28.96 28.9064 27.2C27.7864 25.44 27.2264 23.264 27.2264 20.672C27.2264 17.056 28.2504 14.176 30.2984 12.032C32.3464 9.856 35.4024 8.768 39.4664 8.768C43.1784 8.768 46.0744 9.712 48.1544 11.6C50.2664 13.488 51.3224 16.064 51.3224 19.328V23.312H35.5304C35.9464 24.528 36.7624 25.392 37.9784 25.904C39.1944 26.416 40.8424 26.672 42.9224 26.672C44.2344 26.672 45.5464 26.56 46.8584 26.336C48.2024 26.08 49.2744 25.792 50.0744 25.472V30.896C47.8344 31.952 44.7144 32.48 40.7144 32.48ZM35.5304 18.416H43.5464V17.6C43.5464 16.704 43.2584 15.968 42.6824 15.392C42.1384 14.816 41.1624 14.528 39.7544 14.528C38.1864 14.528 37.0824 14.864 36.4424 15.536C35.8344 16.176 35.5304 17.136 35.5304 18.416ZM85.4755 32.48C80.9315 32.48 77.5715 31.472 75.3955 29.456C73.2515 27.44 72.1795 24.496 72.1795 20.624C72.1795 16.784 73.2675 13.856 75.4435 11.84C77.6195 9.792 80.9635 8.768 85.4755 8.768C90.0195 8.768 93.3795 9.792 95.5555 11.84C97.7635 13.856 98.8675 16.784 98.8675 20.624C98.8675 24.496 97.7795 27.44 95.6035 29.456C93.4275 31.472 90.0515 32.48 85.4755 32.48ZM85.4755 25.904C86.9475 25.904 88.0035 25.488 88.6435 24.656C89.3155 23.824 89.6515 22.48 89.6515 20.624C89.6515 18.8 89.3155 17.472 88.6435 16.64C88.0035 15.776 86.9475 15.344 85.4755 15.344C84.0355 15.344 82.9955 15.776 82.3555 16.64C81.7155 17.472 81.3955 18.8 81.3955 20.624C81.3955 22.48 81.7155 23.824 82.3555 24.656C82.9955 25.488 84.0355 25.904 85.4755 25.904ZM102.249 32V1.088H111.033L118.713 16.784L126.345 1.088H135.081V32H126.057V16.544L121.113 26.72H116.265L111.273 16.544V32H102.249ZM202.133 32.48C199.093 32.48 196.885 31.712 195.509 30.176C194.133 28.64 193.445 26.56 193.445 23.936V15.92H190.469V9.248H193.445V4.592L202.469 2.432V9.248H207.701L207.365 15.92H202.469V23.264C202.469 24.224 202.709 24.912 203.189 25.328C203.669 25.712 204.405 25.904 205.397 25.904C206.325 25.904 207.269 25.744 208.229 25.424V31.424C206.533 32.128 204.501 32.48 202.133 32.48Z"/><path fill="#909DDC" d="M54.6707 32V9.248H63.3587L63.5987 11.072C64.5267 10.528 65.7107 10.032 67.1507 9.584C68.5907 9.136 70.0467 8.864 71.5187 8.768V15.488C70.6867 15.552 69.7747 15.664 68.7827 15.824C67.8227 15.984 66.8787 16.192 65.9507 16.448C65.0547 16.672 64.3027 16.928 63.6947 17.216V32H54.6707Z"/><path fill="#646D99" d="M151.949 32.48C149.293 32.48 146.941 32.048 144.893 31.184C142.877 30.288 141.293 28.96 140.141 27.2C139.021 25.44 138.461 23.264 138.461 20.672C138.461 17.056 139.485 14.176 141.533 12.032C143.581 9.856 146.637 8.768 150.701 8.768C154.413 8.768 157.309 9.712 159.389 11.6C161.501 13.488 162.557 16.064 162.557 19.328V23.312H146.765C147.181 24.528 147.997 25.392 149.213 25.904C150.429 26.416 152.077 26.672 154.157 26.672C155.469 26.672 156.781 26.56 158.093 26.336C159.437 26.08 160.509 25.792 161.309 25.472V30.896C159.069 31.952 155.949 32.48 151.949 32.48ZM146.765 18.416H154.781V17.6C154.781 16.704 154.493 15.968 153.917 15.392C153.373 14.816 152.397 14.528 150.989 14.528C149.421 14.528 148.317 14.864 147.677 15.536C147.069 16.176 146.765 17.136 146.765 18.416ZM178.433 32.48C175.777 32.48 173.425 32.048 171.377 31.184C169.361 30.288 167.777 28.96 166.625 27.2C165.505 25.44 164.945 23.264 164.945 20.672C164.945 17.056 165.969 14.176 168.017 12.032C170.065 9.856 173.121 8.768 177.185 8.768C180.897 8.768 183.793 9.712 185.873 11.6C187.985 13.488 189.041 16.064 189.041 19.328V23.312H173.249C173.665 24.528 174.481 25.392 175.697 25.904C176.913 26.416 178.561 26.672 180.641 26.672C181.953 26.672 183.265 26.56 184.577 26.336C185.921 26.08 186.993 25.792 187.793 25.472V30.896C185.553 31.952 182.433 32.48 178.433 32.48ZM173.249 18.416H181.265V17.6C181.265 16.704 180.977 15.968 180.401 15.392C179.857 14.816 178.881 14.528 177.473 14.528C175.905 14.528 174.801 14.864 174.161 15.536C173.553 16.176 173.249 17.136 173.249 18.416Z"/></svg>